<?xml version="1.0" encoding="UTF-8"?>
<svg width="159px" height="32px" viewBox="0 0 159 32" version="1.1" xmlns="http://www.w3.org/2000/svg" xmlns:xlink="http://www.w3.org/1999/xlink">
    <!-- Generator: Sketch 44.1 (41455) - http://www.bohemiancoding.com/sketch -->
    <title>Page 1</title>
    <desc>Created with Sketch.</desc>
    <defs>
        <polygon id="path-1" points="0.383283137 24.7575758 14.2132156 24.7575758 14.2132156 0.202378788 0.383283137 0.202378788"></polygon>
    </defs>
    <g id="Training" stroke="none" stroke-width="1" fill="none" fill-rule="evenodd">
        <g id="Training-Page" transform="translate(-40.000000, -13.000000)">
            <g id="TopNav">
                <g id="Page-1" transform="translate(40.000000, 13.000000)">
                    <path d="M95.9471067,20.38224 L95.9471067,9.41972653 L96.298757,7 L91,7.56402673 L91,8.05142879 L93.1567081,8.81306652 L93.1567081,20.3154094 L93.1537077,20.3084959 C93.1537077,20.3084959 93.141706,21.4313643 91.1860266,21.4313643 L91.1860266,22 L93.1567081,22 L93.8474068,22 L95.2456065,22 L95.9471067,22 L98,22 L98,21.4313643 C95.941706,21.4313643 95.990913,20.6322784 95.9471067,20.38224" id="Fill-1" fill="#FFFFFF"></path>
                    <path d="M94.4997462,5 C95.3280325,5 96,4.32854001 96,3.49974624 C96,2.67145999 95.3280325,2 94.4997462,2 C93.67146,2 93,2.67145999 93,3.49974624 C93,4.32854001 93.67146,5 94.4997462,5" id="Fill-3" fill="#FFFFFF"></path>
                    <path d="M77.6326703,20.3557093 L77.6326703,2.26558424 L77.9791376,0 L72.322142,1.0112856 L72.322142,1.50668086 L74.8833988,1.87149321 L74.8833988,20.2877828 L74.8804426,20.2807559 C74.8804426,20.2807559 74.9898222,21.3716795 72.9583175,21.3716795 C70.9268128,21.3716795 70.9498712,20.3082779 70.9498712,20.3082779 L70.9498712,8.74144264 L71.295156,6.94783072 L66,7.41687517 L66,7.97668352 C67.9877529,7.97668352 68.2585413,8.78243279 68.2951983,9.01841895 L68.2951983,19.2999201 L68.6245196,22 L80,22 L80,21.4220389 C77.9720427,21.4220389 77.6758309,20.6098483 77.6326703,20.3557093" id="Fill-5" fill="#FFFFFF"></path>
                    <path d="M34.5347692,20.3282161 L34.5347692,13.3100629 L34.4732308,10.203101 L34.4793846,10.1409272 C34.4781538,10.1472597 34.4769231,10.1507138 34.4769231,10.1507138 L34.4861538,10.0701182 L34.7846154,7 L29,7.9596638 L29,8.44669174 L31.6830769,8.80764507 L31.6830769,20.3282161 C31.6830769,20.5872736 31.6707692,21.4318007 29.6658462,21.4318007 L29.6658462,22 L37,22 L37,21.4318007 C34.8652308,21.4318007 34.5347692,20.7582515 34.5347692,20.3282161" id="Fill-7" fill="#FFFFFF"></path>
                    <path d="M42.9998855,20.3293062 L42.9998855,11.2946726 C42.9998855,8.10631688 40.5313788,7 38.6028401,7 C36.6823179,7 35.5330967,8.06201818 35,8.93763664 L35.2107192,9.12115982 C35.7764544,8.40375101 36.830623,7.91473939 38.3297068,8.2558969 C40.3882272,8.72477275 40.4718278,10.9523645 40.4878607,11.4684156 L40.4878607,20.3293062 C40.4878607,20.8511103 40.0761567,21.4321712 38.6337609,21.4321712 L38.6337609,22 L45,22 L45,21.4321712 C43.0685983,21.4321712 42.9998855,20.5801404 42.9998855,20.3293062" id="Fill-9" fill="#FFFFFF"></path>
                    <path d="M64.9838887,20.576634 C62.9327251,20.3551583 62.8645839,18.1614666 62.8484149,17.6598725 L62.8484149,8.77123662 L62.8484149,7 L58,7.43213391 L58,7.98326122 C60.2752209,7.98326122 60.2475025,9.07242086 60.2475025,9.07242086 L60.2475025,9.07242086 L60.2475025,17.8289683 C60.2475025,20.9256434 62.6595831,22 64.5438586,22 C66.4396835,22 67.3809551,21.1750171 68,20.3802095 L67.894901,20.1786609 C67.5380262,20.4081075 66.3328521,20.7223867 64.9838887,20.576634" id="Fill-11" fill="#FFFFFF"></path>
                    <polygon id="Fill-13" fill="#FFFFFF" points="89 7 86 7.67797303 86 8 89 8"></polygon>
                    <polygon id="Fill-15" fill="#FFFFFF" points="126 7.50446163 126.054206 7.97085068 131 9 130.768224 7"></polygon>
                    <path d="M87.4034913,20.9740399 C85.5220849,20.8398487 85.7289557,17.7670995 85.7289557,17.7670995 L85.7289557,9.39493803 L85.7289557,4 L84.9489967,4 L84.8371746,4.32979174 C84.5072995,5.20487708 83.4086476,7.54128099 81,7.77327243 L81,8.25488209 L82.8540101,8.25488209 L82.8568056,8.25374488 L82.9792508,18.536424 L82.9831646,18.5352868 C83.0161521,19.1368724 83.3460272,21.8013622 86.6106728,21.9935512 C88.59216,22.1101156 90,20.6078573 90,20.6078573 L89.7377772,20.3059273 C89.7377772,20.3059273 88.7263465,21.0684285 87.4034913,20.9740399" id="Fill-17" fill="#FFFFFF"></path>
                    <path d="M147.767288,21.115734 L147.767288,17.3653677 L147.736749,15.4995605 L147.89238,14 L145,14.5121594 L145,14.7717551 L146.34136,14.9645473 L146.34136,21.115734 C146.34136,21.2534427 146.335487,21.6970407 145.332403,21.6970407 L145.332403,22 L149,22 L149,21.6970407 C147.932315,21.6970407 147.767288,21.3765016 147.767288,21.115734" id="Fill-19" fill="#FFFFFF"></path>
                    <path d="M151.860362,21.0992098 L151.860362,21.0992098 L151.860362,16.293825 C151.860362,14.5940884 150.741306,14 149.785289,14 C148.833604,14 148.203662,14.563067 148,14.9792215 L148,15.1553995 C148.309826,14.8861574 148.834146,14.5027802 149.577294,14.6853965 C150.597227,14.9347381 150.607518,16.1112087 150.615643,16.3863038 L150.615643,21.1776412 C150.577186,21.3397717 150.41144,21.6968101 149.696999,21.6968101 L149.696999,22 L153,22 L153,21.6968101 C151.846279,21.6968101 151.860362,21.0992098 151.860362,21.0992098" id="Fill-21" fill="#FFFFFF"></path>
                    <path d="M157.660299,21.0987483 L157.660299,21.0987483 L157.660299,16.2909011 C157.660299,14.5902935 156.221904,14 155.098695,14 C153.979943,14 153.239414,14.5639411 153,14.9803089 L153,15.1565771 C153.364215,14.8871971 153.980579,14.5036235 154.854187,14.6857477 C156.053168,14.9358026 156.18752,16.1081912 156.197071,16.3834273 L156.197071,21.1772198 C156.151862,21.3394334 155.95702,21.6966547 155.116523,21.6966547 L155.116523,22 L159,22 L159,21.6966547 C157.643744,21.6966547 157.660299,21.0987483 157.660299,21.0987483" id="Fill-23" fill="#FFFFFF"></path>
                    <path d="M129,20 C128.447232,20 128,20.4479705 128,21 C128,21.5527675 128.447232,22 129,22 C129.55203,22 130,21.5527675 130,21 C130,20.4479705 129.55203,20 129,20" id="Fill-25" fill="#FFFFFF"></path>
                    <path d="M10.2606667,19.8164651 C5.60959747,19.8164651 3.24552143,15.4824434 3.24552143,11.0002954 C3.24552143,7.28120431 4.50069711,1.10180053 9.29561386,1.10180053 C12.3746788,1.10180053 14.9760728,8.27441762 14.9657547,8.28445008 L15.2777277,8.27264718 L15.4822704,0.0088527862 L15.0009579,6.17664967e-07 C15.0185594,-0.00117967147 14.0522927,1.68958452 13.0805633,1.68958452 C12.2684623,1.68958452 11.3683532,0.656831523 9.01459532,0.656831523 C3.71590883,0.656831523 -0.0993882224,5.55798217 0.00197267607,11.9215111 C0.0899806418,17.4488051 4.051553,22 8.70929872,22 C13.7208972,22 15.3572384,18.7229272 16,17.0905873 L15.6661767,16.8639718 C15.6601072,16.8586605 13.8835602,19.8164651 10.2606667,19.8164651" id="Fill-27" fill="#FFFFFF"></path>
                    <path d="M49.3400968,9.44891019 C49.1752508,8.06179806 50.5173124,6.90519389 52.1496464,6.90519389 C54.7907664,6.90519389 56.6661886,12.325905 56.656035,12.3357756 L57.1075698,12.33055 L57.2539005,6.01045141 L56.8597035,6.00000017 C56.8776215,5.99941955 56.3245512,7.47827036 55.4919593,7.47827036 C54.6121832,7.47827036 54.0370139,6.51153043 51.9895786,6.51153043 C49.7199594,6.51153043 47.5817392,7.84870884 47.5160397,10.5137757 C47.35418,17.1073484 56.0557805,14.4933766 56.2881178,18.2802101 C56.4033906,20.1498212 54.2741294,20.9673406 52.413639,20.9673406 C48.5266175,20.9673406 47.8236328,15.4781158 47.8337864,15.4682452 L47.5124561,15.4728902 L47,20.7159302 C47,20.7159302 50.1458116,21.9410481 52.5336899,21.9979493 C55.0452027,22.0577536 57.8714758,20.8187008 57.9963049,17.0742528 C58.2017651,10.9178904 49.772519,13.0795557 49.3400968,9.44891019" id="Fill-29" fill="#FFFFFF"></path>
                    <path d="M23.6426269,20.8900204 C22.1958018,21.0518217 19.0033969,20.0815795 19.0033969,14.107943 C19.0033969,8.57784567 21.5348837,7.44919665 22.624423,7.38017651 C24.4956014,7.26080561 27.2057312,8.89465943 27.2057312,14.5 C27.2057312,19.7760806 24.9882414,20.7395338 23.6426269,20.8900204 M23.0810905,7 C17.7467991,7 16,11.6650826 16,14.489251 C16,17.1821679 17.1779462,22 22.9146416,22 C28.6519467,22 30,16.8206608 30,14.2425888 C30,11.6639511 28.9360683,7 23.0810905,7" id="Fill-31" fill="#FFFFFF"></path>
                    <g id="Group-35" transform="translate(115.000000, 7.000000)">
                        <mask id="mask-2" fill="white">
                            <use xlink:href="#path-1"></use>
                        </mask>
                        <g id="Clip-34"></g>
                        <path d="M7.07540447,23.643197 C5.00792561,23.643197 2.44105854,22.4732576 2.6980366,20.1356818 C2.85711826,18.6882273 4.04527762,17.6789242 4.81096736,17.1705303 C7.73970151,17.6662576 11.293108,17.6127121 11.5698984,19.7263182 C11.9137012,22.351197 9.14288332,23.643197 7.07540447,23.643197 M6.41810003,0.590439394 C8.83870521,0.368772727 10.2477142,3.12319697 10.2477142,7.24907576 C10.2477142,10.1791061 8.85210769,12.1787121 7.30499485,12.2846515 C5.24625674,12.4257121 3.47013623,10.8809545 3.47013623,6.83625758 C3.47013623,1.79434848 5.45486932,0.679106061 6.41810003,0.590439394 M2.92354797,13.9267121 C2.5966439,13.2726515 2.87809606,12.6128333 3.1758643,12.2702576 C4.19445309,12.9571364 5.32434078,13.2455909 6.66633734,13.2455909 C11.1829745,13.2455909 12.8786801,9.43580303 12.8786801,6.72398485 C12.8786801,5.52180303 12.539539,4.00698485 11.8426098,2.80019697 C10.8216901,0.963530303 8.29677867,0.339984848 8.29677867,0.339984848 C7.8440078,0.250742424 7.35044675,0.202378788 6.81201652,0.202378788 C2.52671789,0.202378788 0.603752775,3.9275303 0.603752775,6.89786364 C0.603752775,8.73856061 1.22084976,10.6051667 2.59431303,11.8332576 C1.84086033,12.2541364 0.91200991,13.0181667 0.91200991,14.2261061 C0.91200991,15.8537727 2.16368539,16.5694394 3.80986007,16.9684394 C2.77029347,17.3300152 0.669599762,18.2817424 0.409125396,20.1356818 C0.137579413,22.0673485 1.99702841,24.7578636 6.41460373,24.7578636 C10.8315963,24.7578636 14.5563215,22.6736212 14.1880445,18.8482879 C13.7568342,14.3740758 3.93456144,15.9493485 2.92354797,13.9267121" id="Fill-33" fill="#FFFFFF" mask="url(#mask-2)"></path>
                    </g>
                    <path d="M141.82108,21.4075136 C141.094883,21.460281 139.501656,20.9767709 139.501656,17.790651 C139.501656,14.8419845 140.836976,14.3125896 141.312221,14.2804703 C142.089419,14.2277029 143.602666,15.0106108 143.602666,18 C143.602666,20.8138801 142.513082,21.3570404 141.82108,21.4075136 M141.54057,14 C138.873406,14 138,16.4880987 138,17.9942644 C138,19.430456 138.588839,22 141.457692,22 C144.325965,22 145,19.2377402 145,17.8623459 C145,16.4875251 144.467958,14 141.54057,14" id="Fill-36" fill="#FFFFFF"></path>
                    <path d="M134.200265,14.5844245 C135.621721,14.5844245 136.736957,17.3334252 136.736957,17.3334252 L136.889783,17.3334252 L136.990342,14 L136.754001,14 C136.754001,14 136.43869,14.8242591 135.963734,14.8242591 C135.488779,14.8242591 135.319477,14.328601 134.200265,14.328601 C132.173752,14.328601 131,16.0675396 131,18.0964852 C131,20.1248794 132.028312,22 134.283212,22 C136.538112,22 137,20.0934528 137,20.0934528 L136.835811,19.9820813 C136.835811,19.9820813 136.187577,21.0787043 134.6934,21.0787043 C133.392955,21.0787043 132.289082,19.649621 132.289082,18 C132.289082,15.9297037 132.967427,14.5844245 134.200265,14.5844245" id="Fill-38" fill="#FFFFFF"></path>
                    <path d="M103.534769,20.3748465 L103.534769,13.3100629 L103.473231,10.203101 L103.479385,10.1409272 C103.477538,10.1472597 103.476923,10.1507138 103.476923,10.1507138 L103.486154,10.0701182 L103.784615,7 L98,7.9596638 L98,8.44669174 L100.683077,8.80764507 L100.683077,20.3092186 C100.683077,20.3092186 100.670769,21.4318007 98.6658462,21.4318007 L98.6658462,22 L106,22 L106,21.4318007 C103.864615,21.4318007 103.574154,20.6149064 103.534769,20.3748465" id="Fill-40" fill="#FFFFFF"></path>
                    <path d="M111.999885,20.3103858 L111.999885,20.1705914 L111.999885,11.2950832 C111.999885,8.10684974 109.531379,7 107.60284,7 C105.682318,7 104.533097,8.06197745 104,8.93813761 L104.210719,9.12165375 C104.776454,8.40369717 105.830623,7.91527959 107.329134,8.25642402 C109.387655,8.72528189 109.471828,10.9527882 109.487861,11.4688195 L109.487861,20.457659 C109.487861,20.9184628 109.076157,21.432193 107.633761,21.432193 L107.633761,22 L114,22 L114,21.432193 C112.042258,21.432193 111.999885,20.3103858 111.999885,20.3103858" id="Fill-42" fill="#FFFFFF"></path>
                </g>
            </g>
        </g>
    </g>
</svg>