<?xml version="1.0" encoding="UTF-8"?>
<svg width="16px" height="16px" viewBox="0 0 16 16" version="1.1" xmlns="http://www.w3.org/2000/svg" xmlns:xlink="http://www.w3.org/1999/xlink">
    <!-- Generator: Sketch 44.1 (41455) - http://www.bohemiancoding.com/sketch -->
    <title>Page 1</title>
    <desc>Created with Sketch.</desc>
    <defs></defs>
    <g id="Training" stroke="none" stroke-width="1" fill="none" fill-rule="evenodd">
        <g id="Training-Page" transform="translate(-1753.000000, -19.000000)" fill="#FFFFFF">
            <g id="TopNav">
                <g id="Group-2" transform="translate(1353.000000, 17.000000)">
                    <path d="M415.854356,15.4583333 C416.048548,15.6527787 416.048548,15.8472213 415.854356,16.0416667 L414.065019,17.875 C413.981794,17.9583338 413.870829,18 413.732119,18 C413.621152,18 413.524057,17.9583338 413.440832,17.875 L409.945383,14.2916667 C408.891196,14.93056 407.781539,15.25 406.616385,15.25 C404.813167,15.25 403.259652,14.6041733 401.955787,13.3125013 C400.651922,12.0208267 400,10.4583413 400,8.625 C400,6.79165867 400.651922,5.22917333 401.955787,3.93749867 C403.259652,2.64582667 404.813167,2 406.616385,2 C408.419602,2 409.966183,2.64582667 411.256175,3.93749867 C412.54617,5.22917333 413.191157,6.79165867 413.191157,8.625 C413.191157,9.791672 412.899872,10.8749947 412.317295,11.875 L415.854356,15.4583333 Z M406.616385,4.58333333 C405.506712,4.58333333 404.556571,4.97916267 403.765928,5.770832 C402.975288,6.562504 402.579974,7.51388267 402.579974,8.625 C402.579974,9.73611733 402.975288,10.687496 403.765928,11.479168 C404.556571,12.2708373 405.506712,12.6666667 406.616385,12.6666667 C407.726057,12.6666667 408.669264,12.2708373 409.446033,11.479168 C410.222803,10.687496 410.611183,9.73611733 410.611183,8.625 C410.611183,7.51388267 410.222803,6.562504 409.446033,5.770832 C408.669264,4.97916267 407.726057,4.58333333 406.616385,4.58333333 Z" id="Page-1"></path>
                </g>
            </g>
        </g>
    </g>
</svg>