<?xml version="1.0" encoding="UTF-8"?>
<svg width="21px" height="14px" viewBox="0 0 21 14" version="1.1" xmlns="http://www.w3.org/2000/svg" xmlns:xlink="http://www.w3.org/1999/xlink">
    <!-- Generator: Sketch 44.1 (41455) - http://www.bohemiancoding.com/sketch -->
    <title>Page 1</title>
    <desc>Created with Sketch.</desc>
    <defs></defs>
    <g id="Training" stroke="none" stroke-width="1" fill="none" fill-rule="evenodd">
        <g id="Training-Page" transform="translate(-1473.000000, -909.000000)" fill="#C0CEDB">
            <g id="Group-10" transform="translate(1247.000000, 844.000000)">
                <g id="Group-7" transform="translate(0.000000, 50.000000)">
                    <g id="Group-5">
                        <g id="Group-8">
                            <path d="M243.118881,22.4117647 C242.972756,22 242.945514,22 243.118881,22.4117647 C242.891025,22 242.877404,22 243.118881,22.4117647 C242.959135,21.6111103 243,21.222223 243.118881,20.7647059 C243,19.2291597 242.359783,17.855909 241.216783,16.6470588 C239.798871,15.5711743 238.259623,15 236.461538,15 C234.663454,15 233.124206,15.5711743 231.706294,16.6470588 C230.563294,17.855909 229.923077,19.2291597 229.804196,20.7647059 C229.923077,20.8333333 229.923077,20.8394093 229.804196,20.7647059 C229.923077,20.8637157 229.923077,20.8819437 229.804196,20.7647059 C228.806085,21.0277793 227.873001,21.4713507 226.951049,22.4117647 C226.374596,23.0026077 226,23.8958287 226,24.8823529 C226,25.9375047 226.374596,26.824649 226.951049,27.3529412 C227.873001,28.331601 228.806085,28.7812493 229.804196,29 L229.804196,29 L236.461538,29 L232.657343,24.0588235 L235.51049,24.0588235 L235.51049,19.9411765 C235.153846,19.3506937 235.283253,19.0772573 235.51049,19.1176471 C235.800882,18.615451 236.107371,18.5 236.461538,18.2941176 C236.815706,18.5 237.122195,18.615451 237.412587,19.1176471 C237.639824,19.0772573 237.769231,19.3506937 237.412587,19.9411765 L237.412587,24.0588235 L240.265734,24.0588235 L236.461538,29 L243.118881,29 C244.08975,29 245.016022,28.6597256 245.972028,28.1764706 C246.54167,27.2986078 246.923077,26.4722277 246.923077,25.7058824 C246.923077,24.5277723 246.54167,23.701392 245.972028,23.2352941 C245.016022,22.3402747 244.08975,22 243.118881,22.4117647 Z" id="Page-1"></path>
                        </g>
                    </g>
                </g>
            </g>
        </g>
    </g>
</svg>