<?xml version="1.0" encoding="UTF-8"?>
<svg width="16px" height="15px" viewBox="0 0 16 15" version="1.1" xmlns="http://www.w3.org/2000/svg" xmlns:xlink="http://www.w3.org/1999/xlink">
    <!-- Generator: Sketch 44.1 (41455) - http://www.bohemiancoding.com/sketch -->
    <title>Page 1</title>
    <desc>Created with Sketch.</desc>
    <defs></defs>
    <g id="Training" stroke="none" stroke-width="1" fill="none" fill-rule="evenodd">
        <g id="Training-Page" transform="translate(-1492.000000, -19.000000)" fill="#FFFFFF">
            <g id="TopNav">
                <g id="Group-2" transform="translate(1353.000000, 17.000000)">
                    <g id="Group-3" transform="translate(139.000000, 0.000000)">
                        <path d="M15.6360831,10.175021 L14.15702,10.175021 L14.15702,15.3128861 C14.15702,15.5019427 14.0996935,15.6909964 13.9850384,15.880053 C13.870381,16.0691095 13.6353383,16.1636364 13.2799035,16.1636364 L9.75423391,16.1636364 L9.75423391,11.0424526 L6.24576375,11.0424526 L6.24576375,16.1636364 L2.72009632,16.1636364 C2.3646616,16.1636364 2.12961909,16.0691095 2.01496261,15.880053 C1.90030614,15.6909964 1.84297878,15.5019427 1.84297878,15.3128861 L1.84297878,10.175021 L0.363917833,10.175021 C0.100207964,10.175021 -0.0201795045,10.1138577 0.00275178816,9.99152692 C0.025683083,9.86919611 0.128872347,9.71906479 0.312322684,9.54113081 L7.38085924,2.68508385 C7.46111763,2.59611579 7.55570708,2.52939029 7.66463201,2.48490733 C7.77355474,2.44042437 7.88534368,2.41818182 8.00000103,2.41818182 C8.11465619,2.41818182 8.22644513,2.44042437 8.33536785,2.48490733 C8.44429278,2.52939029 8.53888224,2.59611579 8.61914282,2.68508385 L15.6876772,9.54113081 C15.8711281,9.71906479 15.9743162,9.86919611 15.9972481,9.99152692 C16.02018,10.1138577 15.8997924,10.175021 15.6360831,10.175021 Z" id="Page-1"></path>
                    </g>
                </g>
            </g>
        </g>
    </g>
</svg>