<?xml version="1.0" encoding="UTF-8"?>
<svg width="18px" height="18px" viewBox="0 0 18 18" version="1.1" xmlns="http://www.w3.org/2000/svg" xmlns:xlink="http://www.w3.org/1999/xlink">
    <!-- Generator: Sketch 44.1 (41455) - http://www.bohemiancoding.com/sketch -->
    <title>Group 15</title>
    <desc>Created with Sketch.</desc>
    <defs></defs>
    <g id="Training" stroke="none" stroke-width="1" fill="none" fill-rule="evenodd">
        <g id="Training-Page" transform="translate(-509.000000, -450.000000)">
            <g id="Group" transform="translate(232.000000, 440.000000)">
                <g id="Group-15" transform="translate(277.000000, 10.000000)">
                    <circle id="Oval-4" fill="#0FC45C" cx="9" cy="9" r="9"></circle>
                    <path d="M13.8941169,6.66352941 L13.0941169,5.86352941 C13.015686,5.78509704 12.9254912,5.74588235 12.8235294,5.74588235 C12.7215676,5.74588235 12.6313728,5.78509704 12.5529419,5.86352941 L7.74117647,10.6752934 L5.44705882,8.36941101 C5.36862705,8.29882278 5.27843192,8.26352941 5.17647059,8.26352941 C5.07450925,8.26352941 4.98431413,8.29882278 4.90588235,8.36941101 L4.10588235,9.16941101 C4.03529377,9.24784339 4,9.33803821 4,9.44 C4,9.54196179 4.03529377,9.63215661 4.10588235,9.71058899 L7.47058899,13.0870588 C7.54117722,13.1654906 7.62941139,13.2047059 7.73529449,13.2047059 C7.8411776,13.2047059 7.92941176,13.1654906 8,13.0870588 L13.8941169,7.20470588 C13.9647066,7.12627351 14,7.03411802 14,6.92823492 C14,6.82235181 13.9647066,6.73411765 13.8941169,6.66352941 Z" id="Page-1" fill="#FFFFFF"></path>
                </g>
            </g>
        </g>
    </g>
</svg>