<?xml version="1.0" encoding="UTF-8"?>
<svg width="16px" height="16px" viewBox="0 0 16 16" version="1.1" xmlns="http://www.w3.org/2000/svg" xmlns:xlink="http://www.w3.org/1999/xlink">
    <!-- Generator: Sketch 44.1 (41455) - http://www.bohemiancoding.com/sketch -->
    <title>Page 1</title>
    <desc>Created with Sketch.</desc>
    <defs></defs>
    <g id="Training" stroke="none" stroke-width="1" fill="none" fill-rule="evenodd">
        <g id="Training-Page" transform="translate(-1353.000000, -18.000000)" fill="#FFFFFF">
            <g id="TopNav">
                <g id="Group-2" transform="translate(1353.000000, 17.000000)">
                    <g id="Group-21">
                        <path d="M16,16.6909091 L8,16.6909091 L0,16.6909091 C0,15.9818146 0.0277774933,15.4363656 0.0833333333,15.0545455 C0.194445013,14.5090881 1.31943387,13.8409135 3.45833333,13.05 C3.79166933,12.9409082 4.19444267,12.8045455 4.66666667,12.6409091 C5.30556,12.4227255 5.68055467,12.252274 5.79166667,12.1295441 C5.90277867,12.0068169 5.95833333,11.645458 5.95833333,11.0454545 L5.95833333,10.8 C5.95833333,10.4727247 5.83333333,10.1522749 5.58333333,9.83863505 C5.33333333,9.52499782 5.13889067,8.97273164 5,8.18181818 C4.94444533,7.90909004 4.861112,7.69090909 4.75,7.52727273 C4.638888,7.36363636 4.52777867,7.03636625 4.41666667,6.54545455 C4.33333333,6.3 4.32638933,6.06818356 4.39583467,5.85 C4.46527733,5.63181644 4.5,5.49545367 4.5,5.44090909 C4.44444533,5.00454458 4.388888,4.5545472 4.33333333,4.09090909 C4.27777867,3.463632 4.555552,2.78864116 5.16666667,2.06590778 C5.77778133,1.34317702 6.722216,0.981818182 8,0.981818182 C9.277784,0.981818182 10.2222187,1.34317702 10.8333333,2.06590778 C11.444448,2.78864116 11.7222213,3.463632 11.6666667,4.09090909 C11.611112,4.5545472 11.5555547,5.00454458 11.5,5.44090909 C11.5,5.49545367 11.5347227,5.63181644 11.6041653,5.85 C11.6736107,6.06818356 11.6666667,6.3 11.5833333,6.54545455 C11.4722213,7.03636625 11.361112,7.36363636 11.25,7.52727273 C11.138888,7.69090909 11.0555547,7.90909004 11,8.18181818 C10.8611093,8.97273164 10.6666667,9.52499782 10.4166667,9.83863505 C10.1666667,10.1522749 10.0416667,10.4727247 10.0416667,10.8 C10.0416667,11.6181871 10.125,12.0818173 10.2916667,12.1909091 C10.3472213,12.2454537 11.0277707,12.5045437 12.3333333,12.9681818 C12.388888,12.9954554 12.4583333,13.0227264 12.5416667,13.05 C14.6805653,13.8409135 15.8055547,14.5090881 15.9166667,15.0545455 L16,16.6909091 Z" id="Page-1"></path>
                    </g>
                </g>
            </g>
        </g>
    </g>
</svg>