<?xml version="1.0" encoding="UTF-8"?>
<svg width="17px" height="18px" viewBox="0 0 17 18" version="1.1" xmlns="http://www.w3.org/2000/svg" xmlns:xlink="http://www.w3.org/1999/xlink">
    <!-- Generator: Sketch 44.1 (41455) - http://www.bohemiancoding.com/sketch -->
    <title>Page 1</title>
    <desc>Created with Sketch.</desc>
    <defs></defs>
    <g id="Training" stroke="none" stroke-width="1" fill="none" fill-rule="evenodd">
        <g id="Training-Page" transform="translate(-1648.000000, -18.000000)" fill="#FFFFFF">
            <g id="TopNav">
                <g id="Group-2" transform="translate(1353.000000, 17.000000)">
                    <g id="Group-4" transform="translate(295.000000, 0.000000)">
                        <path d="M16.9994207,9.67005633 C17.0247174,11.9798134 16.2215804,13.9542539 14.5899855,15.5934351 C12.958393,17.2326172 10.9663619,18.0770318 8.61383151,18.126704 C6.26130115,18.1515401 4.25029693,17.363006 2.58076058,15.7610779 C0.911223266,14.1591495 0.0511713555,12.2033371 0.00057930674,9.89358006 C-0.0247167177,7.58382297 0.778419818,5.60938247 2.41001329,3.97020133 C4.04160701,2.33102019 6.03363809,1.48660358 8.38616846,1.43693244 C10.7386988,1.41209568 12.749703,2.20063016 14.4192394,3.80255973 C16.0887757,5.40448691 16.9488297,7.36029925 16.9994207,9.67005633 Z M8.49999998,4.41724878 C8.14585584,4.41724878 7.85495467,4.52901064 7.62729161,4.75253437 C7.39962856,4.9760581 7.28579703,5.26167016 7.28579703,5.60937532 C7.28579703,5.95708048 7.39962856,6.24269254 7.62729161,6.46621627 C7.85495467,6.68973999 8.14585584,6.80150186 8.49999998,6.80150186 C8.85414413,6.80150186 9.1450453,6.68973999 9.37270836,6.46621627 C9.60037141,6.24269254 9.71420294,5.95708048 9.71420294,5.60937532 C9.71420294,5.26167016 9.60037141,4.9760581 9.37270836,4.75253437 C9.1450453,4.52901064 8.85414413,4.41724878 8.49999998,4.41724878 Z M10.169529,14.9601178 L10.169529,14.5503243 L9.33476452,14.5503243 L9.33476452,8.14264421 L6.83047092,8.14264421 L6.83047092,8.58969166 L7.66523545,8.58969166 L7.66523545,14.5503243 L6.83047092,14.5503243 L6.83047092,14.9601178 L10.169529,14.9601178 Z" id="Page-1"></path>
                    </g>
                </g>
            </g>
        </g>
    </g>
</svg>